<svg width="12" height="20" viewBox="0 0 12 20" fill="none" xmlns="http://www.w3.org/2000/svg">
    <path
        d="M6.01991 0.0497437C5.55623 0.576112 5.27364 1.26467 5.27364 2.02089C5.301 3.68109 5.50448 5.3393 5.5224 6.99601C5.55921 8.54328 5.09553 9.99601 4.53135 11.4139C4.34329 11.8055 4.1403 12.1886 3.93682 12.5726L3.33981 12.4522C2.801 12.3448 2.45075 11.8209 2.55871 11.2821C2.65274 10.8109 3.06767 10.4811 3.53035 10.4811L3.74826 10.5045L3.26219 6.44477C3.10349 4.6388 2.17115 3.05173 0.799507 2.02188C0.563686 1.84477 0.313437 1.68258 0.0532379 1.53979V15.9527H3.3806C3.62936 17.301 4.37264 18.4801 5.41742 19.2861C5.66568 19.4572 5.87414 19.6831 6.02389 19.9468C6.17314 19.6831 6.3816 19.4572 6.63036 19.2861C7.67513 18.4781 8.41842 17.3015 8.66717 15.9527H11.9945V1.53979C11.7343 1.68258 11.4841 1.84477 11.2483 2.02188C9.87513 3.05323 8.94478 4.6388 8.78558 6.44477L8.29951 10.5045L8.51742 10.4811C8.98011 10.4831 9.39503 10.8104 9.48906 11.2821C9.59653 11.8209 9.24628 12.3443 8.70797 12.4522L8.11095 12.5726C7.90747 12.189 7.70399 11.806 7.51643 11.4139C6.95175 9.99701 6.48807 8.54427 6.52488 6.99601C6.54279 5.33432 6.74628 3.6776 6.77364 2.02089C6.77364 1.26467 6.49105 0.578102 6.02737 0.0497437H6.01991ZM1.04478 3.61691C1.68856 4.37263 2.1209 5.31343 2.24876 6.34974L2.64677 9.698C2.13682 9.95173 1.75125 10.4174 1.60498 10.9811H1.0413V3.6179L1.04478 3.61691ZM10.995 3.61691V10.9801H10.4314C10.2861 10.4169 9.89951 9.95124 9.38956 9.69701L9.78757 6.34875C9.91643 5.31343 10.3488 4.37163 10.9916 3.61542L10.995 3.61691ZM6.01991 10.3483C6.28707 11.2224 6.65473 12.0547 7.11195 12.8249C6.67712 12.9567 6.29901 13.2134 6.01991 13.5592C5.7408 13.2134 5.36269 12.9572 4.92787 12.8244C5.38508 12.0527 5.75274 11.2224 6.01991 10.3483V10.3483ZM1.04478 11.9771H1.60846C1.78607 12.6642 2.32239 13.2065 3.0015 13.396L3.47961 13.505C3.35175 13.9686 3.2816 14.4552 3.2816 14.9627H1.04279V11.9776L1.04478 11.9771ZM10.4328 11.9771H10.9965V14.9622H8.75772C8.75772 14.4577 8.68757 13.9686 8.55971 13.5045L9.03782 13.3955C9.71941 13.206 10.2552 12.6632 10.4309 11.9766L10.4328 11.9771ZM4.45274 13.7333C5.05623 13.8184 5.5214 14.3353 5.5214 14.9617H4.27762C4.27762 14.5353 4.3408 14.1239 4.45274 13.7333ZM7.58558 13.7333C7.69752 14.1239 7.7607 14.5343 7.7607 14.9617H6.51692C6.51692 14.3343 6.9821 13.8184 7.58558 13.7333ZM4.39155 15.9572H5.5224V18.0517C4.97513 17.4771 4.57712 16.7582 4.39155 15.9572ZM6.51742 15.9572H7.64827C7.46518 16.7582 7.06618 17.4781 6.51742 18.0517V15.9572Z"
        fill="#FFE358" />
</svg>