<?xml version="1.0" encoding="UTF-8"?>
<svg xmlns="http://www.w3.org/2000/svg" xmlns:xlink="http://www.w3.org/1999/xlink" width="24px" height="40px" viewBox="0 0 24 40" version="1.1">
<g id="surface1">
<path style=" stroke:none;fill-rule:nonzero;fill:rgb(100%,89.019608%,34.509804%);fill-opacity:1;" d="M 12.039062 0.0976562 C 11.113281 1.152344 10.546875 2.53125 10.546875 4.042969 C 10.601562 7.363281 11.007812 10.679688 11.042969 13.992188 C 11.117188 17.085938 10.191406 19.992188 9.0625 22.828125 C 8.6875 23.609375 8.28125 24.378906 7.875 25.144531 L 6.679688 24.90625 C 5.601562 24.691406 4.902344 23.640625 5.117188 22.5625 C 5.304688 21.621094 6.136719 20.960938 7.0625 20.960938 L 7.496094 21.007812 L 6.523438 12.890625 C 6.207031 9.277344 4.34375 6.101562 1.597656 4.042969 C 1.128906 3.691406 0.625 3.363281 0.105469 3.078125 L 0.105469 31.90625 L 6.761719 31.90625 C 7.257812 34.601562 8.746094 36.960938 10.835938 38.570312 C 11.332031 38.914062 11.75 39.367188 12.046875 39.894531 C 12.347656 39.367188 12.761719 38.914062 13.261719 38.570312 C 15.351562 36.957031 16.835938 34.601562 17.335938 31.90625 L 23.988281 31.90625 L 23.988281 3.078125 C 23.46875 3.363281 22.96875 3.691406 22.496094 4.042969 C 19.75 6.105469 17.890625 9.277344 17.570312 12.890625 L 16.597656 21.007812 L 17.035156 20.960938 C 17.960938 20.964844 18.789062 21.621094 18.976562 22.5625 C 19.191406 23.640625 18.492188 24.6875 17.414062 24.90625 L 16.222656 25.144531 C 15.816406 24.378906 15.40625 23.613281 15.03125 22.828125 C 13.902344 19.992188 12.976562 17.089844 13.050781 13.992188 C 13.085938 10.667969 13.492188 7.355469 13.546875 4.042969 C 13.546875 2.53125 12.980469 1.15625 12.054688 0.0976562 Z M 2.089844 7.234375 C 3.378906 8.746094 4.242188 10.625 4.496094 12.699219 L 5.292969 19.394531 C 4.273438 19.902344 3.503906 20.835938 3.210938 21.960938 L 2.082031 21.960938 L 2.082031 7.234375 Z M 21.988281 7.234375 L 21.988281 21.960938 L 20.863281 21.960938 C 20.570312 20.832031 19.800781 19.902344 18.777344 19.394531 L 19.574219 12.699219 C 19.832031 10.625 20.699219 8.742188 21.984375 7.230469 Z M 12.039062 20.695312 C 12.574219 22.445312 13.308594 24.109375 14.222656 25.648438 C 13.355469 25.914062 12.597656 26.425781 12.039062 27.117188 C 11.480469 26.425781 10.726562 25.914062 9.855469 25.648438 C 10.769531 24.105469 11.503906 22.445312 12.039062 20.695312 Z M 2.089844 23.953125 L 3.21875 23.953125 C 3.570312 25.328125 4.644531 26.414062 6.003906 26.792969 L 6.960938 27.011719 C 6.703125 27.9375 6.5625 28.910156 6.5625 29.925781 L 2.085938 29.925781 L 2.085938 23.957031 Z M 20.867188 23.953125 L 21.992188 23.953125 L 21.992188 29.925781 L 17.515625 29.925781 C 17.515625 28.914062 17.375 27.9375 17.121094 27.007812 L 18.074219 26.789062 C 19.4375 26.410156 20.511719 25.328125 20.863281 23.953125 Z M 8.90625 27.464844 C 10.113281 27.636719 11.042969 28.671875 11.042969 29.921875 L 8.554688 29.921875 C 8.554688 29.070312 8.679688 28.246094 8.90625 27.464844 Z M 15.171875 27.464844 C 15.394531 28.246094 15.519531 29.070312 15.519531 29.921875 L 13.035156 29.921875 C 13.035156 28.667969 13.964844 27.636719 15.171875 27.464844 Z M 8.78125 31.914062 L 11.042969 31.914062 L 11.042969 36.101562 C 9.949219 34.953125 9.152344 33.515625 8.78125 31.914062 Z M 13.035156 31.914062 L 15.296875 31.914062 C 14.929688 33.515625 14.132812 34.957031 13.035156 36.101562 Z M 13.035156 31.914062 "/>
</g>
</svg>
